# xmcd
#
# Track frame offsets:
#	150
#	16838
#	30735
#	46275
#	61555
#	76563
#	89195
#	103320
#	114270
#	128220
#	141193
#	160155
#	174040
#	186650
#
# Disc length: 2761 seconds
#
# Revision: 0
# Processed by: cddbd v1.5.1PL0 Copyright (c) Steve Scherf et al.
# Submitted via: EasyCDDAExtractor 8.0.2.1
#
DISCID=ae0ac70e
DTITLE=Various Artist - Goldene Volksmusik Parade 3/1997
DYEAR=1997
DGENRE=Volksmusik
TTITLE0=Nockalm Quintett - Lebenslang Mit Dir
TTITLE1=Schachner and Co - Drück Mich Ganz Fest An Dich
TTITLE2=Stoakogler - Mia San Stolz Auf Unser Holz
TTITLE3=White Stars - Ich Hab' Sehnsucht Nach Mykonos
TTITLE4=Walter Scholz - Rosenmelodie
TTITLE5=Original Bregenzerwälder Dorfmusikanten - Campo Amore
TTITLE6=Mürztaler Musikanten - A Herzerl Mit Dein'm Namen Drin
TTITLE7=Edlseer Trio - Du Muast Net Alleweil So Verlegen Sein
TTITLE8=Kurt Elsasser - Warm Um's Herz
TTITLE9=Dirk Schiefen - Am Sternenhimmel
TTITLE10=Leonard - Wie Konnt' Ich Ohne Dich Nur Leben
TTITLE11=Duo Herzklang - Sag Hast Mi Gern
TTITLE12=Calimeros - Dieses Wahnsinnsgefühl
TTITLE13=Monika Martin - Sag, Dass Es Liebe War
EXTD=
EXTT0=
EXTT1=
EXTT2=
EXTT3=
EXTT4=
EXTT5=
EXTT6=
EXTT7=
EXTT8=
EXTT9=
EXTT10=
EXTT11=
EXTT12=
EXTT13=
PLAYORDER=
